<svg xmlns="http://www.w3.org/2000/svg" viewBox="-33.4 0 403 57.6" height="57.6" width="403"><path fill="#47a4a5" d="M3.4 47.6c-1.2 2.2-2.7 4.1-4.6 5.6-1.9 1.5-4.1 2.6-6.5 3.3-2.5.7-5 1.1-7.5 1.1-3.4 0-6.8-.5-10-1.4-3.3-.9-6-2.4-8.2-4.3l6.1-10c1.9 1.5 3.7 2.5 5.5 3 1.7.5 3.4.8 5.1.8 1.3 0 2.5-.2 3.6-.5s2-.8 2.8-1.5c.8-.7 1.4-1.7 1.9-2.9s.7-2.7.7-4.5V.5h13v39c-.2 3.2-.7 5.8-1.9 8.1zM41.1.5C44.3.5 47 1 49.2 2c2.2 1 4.1 2.4 5.5 4.1 1.4 1.7 2.5 3.6 3.1 5.7.7 2.1 1 4.3 1 6.6s-.4 4.5-1.2 6.6c-.8 2.1-2 4-3.5 5.7-1.6 1.7-3.5 3-5.7 4.1-2.2 1-4.8 1.5-7.7 1.5H29.4v20.6h-13V.5zM29.4 24.9H39c2.5 0 4.2-.6 5.2-1.9 1-1.2 1.6-2.8 1.6-4.5 0-1.8-.5-3.3-1.5-4.5-1-1.2-2.8-1.9-5.3-1.9h-9.6zm72.9 28.3c-1.6 1.1-3.3 1.9-5 2.6-1.7.7-3.4 1.1-5.1 1.4-1.7.3-3.3.4-4.8.4-2.6 0-5.2-.4-7.8-1.1-2.6-.7-5-1.8-7.1-3.3-2.1-1.5-3.9-3.3-5.2-5.6-1.3-2.3-2-5-2-8.1v-21c0-3.1.6-5.8 1.9-8.1 1.3-2.3 3-4.2 5.1-5.8 2.1-1.6 4.5-2.7 7.1-3.5C82 .3 84.7 0 87.4 0c3.3 0 6.7.5 10 1.4 3.4 1 6.2 2.4 8.4 4.4l-6.3 10.1c-1.9-1.6-3.8-2.6-5.9-3.2-2.1-.5-4.1-.8-5.9-.8-1.1 0-2.2.2-3.3.5-1.1.3-2.1.8-3 1.5-.9.7-1.7 1.6-2.3 2.7-.6 1.1-.9 2.5-.9 4.1v16c0 1.6.3 3 .8 4.1.5 1.1 1.3 2 2.1 2.7.9.7 1.8 1.2 2.9 1.5 1.1.3 2.1.5 3.2.5 1 0 2-.1 3.1-.4 1.1-.3 2.1-.8 3-1.6v-7.6h-7.8v-11h20.8v24.2c-.9 1.7-2.3 3-4 4.1z"/><path fill="#556a72" d="M125.3 25.8v-9.5h5L132.2 6h9.8v10.3h9.1v9.5H142v15.7c0 2 .4 3.3 1.3 3.9.9.6 2.3.9 4.4.9 1.5 0 3.4-.1 5.7-.2l1 9.8c-1.8.7-3.7 1.1-5.5 1.3-1.9.2-3.6.3-5.1.3-2.9 0-5.2-.3-7-1-1.8-.7-3.2-1.6-4.1-2.8-1-1.2-1.7-2.6-2-4.3-.4-1.7-.5-3.5-.5-5.5v-18h-4.9zM184 45.5c-.1.4-.2.8-.4 1.2-.1.4-.3.7-.5 1-.2.5-.6 1.3-1.1 2.3-.5 1-1.2 2-2.1 3-.9 1-2 1.8-3.3 2.5-1.3.7-2.9.8-4.7.6-3-.6-5.4-1.7-7.4-3.4-1.2-1-2.2-2.2-3.1-3.7-.2-.4-.4-.9-.6-1.3-.2-.4-.3-.9-.5-1.4V46l-.2-1c-.1-.2-.1-.4-.1-.7 0-.2-.1-.5-.1-.7v-1.2c-.1-.3-.1-.6-.1-.9v-1.4c0-2.5.4-4.7 1.3-6.8.9-2 2.2-3.7 3.8-4.9 1.6-1.3 3.6-2.3 5.8-3 2-.5 4.1-.9 6.5-1v-4.1l9.7 9.7-9.7 9.7v-4.4c-.6.1-1.2.2-1.7.4s-1.1.4-1.6.8c-1.3.9-2 2.4-2 4.5 0 .1 0 .2.1.3 0 .1.1.4.2.8h.1c0 .3.1.5.2.7 0 .1.1.2.2.3v.3c.1.1.2.2.2.3l.2.2.2.2c.2.2.3.3.4.3 1.3.9 2.7 1.3 4.3 1.3 1.5 0 2.9-.4 4.2-1.3 1.3-.8 2-2.3 2-4.5V36c.1.4.1 1 .2 1.8s.1 1.6.1 2.5c0 .8 0 1.4-.1 2-.1.6-.1 1.1-.2 1.6-.1.9-.2 1.3-.2 1.6zm-21.3-19.6c-1.1.9-2.1 1.9-3 3.1.2-1.7.6-3.4 1.4-5.1.4-1 1-1.9 1.7-2.7.7-.8 1.4-1.6 2.3-2.2 1.6-1.3 3.5-2.3 5.8-3 .5-.1 1-.2 1.4-.3.5-.1.9-.2 1.4-.3v6.1c-1.6.2-3 .4-4.2.8-2.5.8-4.8 2-6.8 3.6zm28.7-6.8c3.3 2.7 4.9 6.7 4.9 11.9v9.9c0 1.3-.1 2.5-.3 3.6-.2 1.1-.5 2.2-1 3.2-.9 2-2.2 3.7-3.8 4.9-1.6 1.4-3.6 2.4-5.8 3-.9.3-1.8.5-2.7.6-.9.1-1.9.3-2.9.4.6-.5 1.1-1 1.6-1.5s1-1.1 1.4-1.7c1.6-2.1 2.7-4.5 3-7.1.1-.4.2-.9.2-1.4.1-.5.1-1 .1-1.5 0-.2 0-.8-.1-1.9-.1-1-.3-2.3-.7-3.9-.1-.3-.2-.5-.2-.8-.1-.2-.1-.5-.2-.8l6.2-6.2-15-14.9c.3-.1.6-.1.9-.1h.9c5.7.2 10.1 1.6 13.5 4.3z"/><path fill="#e37863" d="M246.8.5c3.2 0 5.9.5 8.1 1.5 2.2 1 4.1 2.4 5.5 4.1 1.4 1.7 2.5 3.6 3.1 5.7.7 2.1 1 4.3 1 6.6s-.4 4.5-1.2 6.6c-.8 2.1-2 4-3.5 5.7-1.6 1.7-3.5 3-5.7 4.1-2.2 1-4.8 1.5-7.7 1.5h-11.3v20.6h-13V.5zm-11.7 24.4h9.6c2.5 0 4.2-.6 5.2-1.9 1-1.2 1.6-2.8 1.6-4.5 0-1.8-.5-3.3-1.5-4.5-1-1.2-2.8-1.9-5.3-1.9h-9.6zm49.1-.4V57h-13V.5h11.7l9.4 13.7L304.7 33h.2V.5h13V57h-11.7l-11.7-17.2-10-15.3zm81.4 28.7c-1.6 1.1-3.3 1.9-5 2.6-1.7.7-3.4 1.1-5.1 1.4-1.7.3-3.3.4-4.8.4-2.6 0-5.2-.4-7.8-1.1-2.6-.7-5-1.8-7.1-3.3-2.1-1.5-3.9-3.3-5.2-5.6-1.3-2.3-2-5-2-8.1v-21c0-3.1.6-5.8 1.9-8.1 1.3-2.3 3-4.2 5.1-5.8 2.1-1.6 4.5-2.7 7.1-3.5 2.6-.8 5.3-1.1 8-1.1 3.3 0 6.7.5 10 1.4 3.4 1 6.2 2.4 8.4 4.4l-6.3 10.1c-1.9-1.6-3.8-2.6-5.9-3.2-2.1-.5-4.1-.8-5.9-.8-1.1 0-2.2.2-3.3.5-1.1.3-2.1.8-3 1.5-.9.7-1.7 1.6-2.3 2.7-.6 1.1-.9 2.5-.9 4.1v16c0 1.6.3 3 .8 4.1.5 1.1 1.3 2 2.1 2.7.9.7 1.8 1.2 2.9 1.5 1.1.3 2.1.5 3.2.5 1 0 2-.1 3.1-.4 1.1-.3 2.1-.8 3-1.6v-7.6h-7.8v-11h20.8v24.2c-1 1.7-2.4 3-4 4.1z"/></svg>